<?xml version="1.0" standalone="yes"?>

<svg version="1.1" viewBox="0.0 0.0 166.0 170.0" fill="none" stroke="none" stroke-linecap="square" stroke-miterlimit="10" xmlns="http://www.w3.org/2000/svg" xmlns:xlink="http://www.w3.org/1999/xlink"><clipPath id="p.0"><path d="m0 0l166.0 0l0 170.0l-166.0 0l0 -170.0z" clip-rule="nonzero"></path></clipPath><g clip-path="url(#p.0)"><path fill="#000000" fill-opacity="0.0" d="m0 0l166.39896 0l0 170.66667l-166.39896 0z" fill-rule="nonzero"></path><path fill="#3d85c6" d="m6.39895 32.530685l0 0c0 -13.843636 11.222483 -25.066118 25.066118 -25.066118l102.4032 0l0 0c6.647949 0 13.023605 2.6408868 17.724411 7.3416963c4.700821 4.7008095 7.3417053 11.076475 7.3417053 17.724422l0 100.26146c0 13.843643 -11.222488 25.066116 -25.066116 25.066116l-102.4032 0c-13.843636 0 -25.066118 -11.222473 -25.066118 -25.066116z" fill-rule="nonzero"></path><path stroke="#ffffff" stroke-width="2.0" stroke-linejoin="round" stroke-linecap="butt" d="m6.39895 32.530685l0 0c0 -13.843636 11.222483 -25.066118 25.066118 -25.066118l102.4032 0l0 0c6.647949 0 13.023605 2.6408868 17.724411 7.3416963c4.700821 4.7008095 7.3417053 11.076475 7.3417053 17.724422l0 100.26146c0 13.843643 -11.222488 25.066116 -25.066116 25.066116l-102.4032 0c-13.843636 0 -25.066118 -11.222473 -25.066118 -25.066116z" fill-rule="nonzero"></path><path fill="#cc0000" d="m112.94907 72.702l8.876869 -8.477798l9.121567 9.550949l9.121567 -9.550949l8.876862 8.477798l-9.511658 9.959412l9.511658 9.959412l-8.876862 8.477798l-9.121567 -9.550941l-9.121567 9.550941l-8.876869 -8.477798l9.511665 -9.959412z" fill-rule="nonzero"></path><path stroke="#000000" stroke-width="2.0" stroke-linejoin="round" stroke-linecap="butt" d="m112.94907 72.702l8.876869 -8.477798l9.121567 9.550949l9.121567 -9.550949l8.876862 8.477798l-9.511658 9.959412l9.511658 9.959412l-8.876862 8.477798l-9.121567 -9.550941l-9.121567 9.550941l-8.876869 -8.477798l9.511665 -9.959412z" fill-rule="nonzero"></path><path fill="#39e439" d="m30.03282 98.09349l-13.0393715 -23.244095l10.179592 -0.011756897l6.2597294 11.158646l19.928314 -11.188889l18.183548 -0.020996094z" fill-rule="nonzero"></path><path stroke="#000000" stroke-width="2.0" stroke-linejoin="round" stroke-linecap="butt" d="m30.03282 98.09349l-13.0393715 -23.244095l10.179592 -0.011756897l6.2597294 11.158646l19.928314 -11.188889l18.183548 -0.020996094z" fill-rule="nonzero"></path></g></svg>

